<?xml version="1.0" encoding="UTF-8" standalone="no"?>
<!DOCTYPE svg PUBLIC "-//W3C//DTD SVG 1.1//EN" "http://www.w3.org/Graphics/SVG/1.1/DTD/svg11.dtd">
<svg width="100%" height="100%" viewBox="0 0 90 90" version="1.1" xmlns="http://www.w3.org/2000/svg" xmlns:xlink="http://www.w3.org/1999/xlink" xml:space="preserve" xmlns:serif="http://www.serif.com/" style="fill-rule:evenodd;clip-rule:evenodd;stroke-linejoin:round;stroke-miterlimit:2;">
    <g transform="matrix(1,0,0,1,-5.6,-4.9)">
        <path d="M50.6,80.2C33.9,80.2 20.3,66.6 20.3,49.9L21.3,49.9C21.3,66 34.4,79.2 50.6,79.2C66.8,79.2 79.9,66.1 79.9,49.9L80.9,49.9C80.9,66.6 67.3,80.2 50.6,80.2Z" style="fill-rule:nonzero;"/>
        <g>
            <path d="M24.7,39C24.6,39 24.4,38.9 24.3,38.8C24.1,38.6 24.1,38.3 24.3,38.1C24.7,37.8 32.5,31 42,32C42.3,32 42.5,32.3 42.4,32.5C42.3,32.7 42.2,33 41.9,33C32.8,32 25.1,38.8 25,38.9C24.9,39 24.8,39 24.7,39Z" style="fill-rule:nonzero;"/>
            <path d="M65,44.3C58.4,44.3 53,38.9 53,32.3C53,25.7 58.4,20.3 65,20.3C71.6,20.3 77,25.7 77,32.3C77,38.9 71.7,44.3 65,44.3ZM65,21.3C58.9,21.3 54,26.2 54,32.3C54,38.4 58.9,43.3 65,43.3C71.1,43.3 76,38.4 76,32.3C76,26.2 71.1,21.3 65,21.3Z" style="fill-rule:nonzero;"/>
            <path d="M65,36C64.1,36 63.1,35.6 62.4,34.9C61.7,34.2 61.3,33.3 61.3,32.3C61.3,31.3 61.7,30.4 62.4,29.7C63.8,28.3 66.2,28.3 67.6,29.7C68.3,30.4 68.7,31.3 68.7,32.3C68.7,33.3 68.3,34.2 67.6,34.9C66.9,35.6 66,36 65,36ZM65,29.6C64.3,29.6 63.6,29.9 63.1,30.4C62.6,30.9 62.3,31.6 62.3,32.3C62.3,33 62.6,33.7 63.1,34.2C64.1,35.2 65.8,35.2 66.9,34.2C67.4,33.7 67.7,33 67.7,32.3C67.7,31.6 67.4,30.9 66.9,30.4C66.4,29.9 65.7,29.6 65,29.6Z" style="fill-rule:nonzero;"/>
        </g>
        <path d="M50.6,5.9C74.9,5.9 94.6,25.6 94.6,49.9C94.6,74.2 74.9,93.9 50.6,93.9C26.3,93.9 6.6,74.2 6.6,49.9C6.6,25.6 26.4,5.9 50.6,5.9M50.6,4.9C25.7,4.9 5.6,25 5.6,49.9C5.6,74.8 25.7,94.9 50.6,94.9C75.5,94.9 95.6,74.8 95.6,49.9C95.6,25.1 75.5,4.9 50.6,4.9Z" style="fill-rule:nonzero;"/>
    </g>
</svg>
